<svg width="20" height="20" viewBox="0 0 20 20" fill="none" xmlns="http://www.w3.org/2000/svg">
<g id="Union">
<path id="Union_2" fill-rule="evenodd" clip-rule="evenodd" d="M14.4438 14.7892C13.069 16.0799 11.2192 16.8705 9.18464 16.8705C4.94019 16.8705 1.49939 13.4297 1.49939 9.18525C1.49939 4.9408 4.94019 1.5 9.18464 1.5C13.4291 1.5 16.8699 4.9408 16.8699 9.18525C16.8699 11.2198 16.0793 13.0696 14.7886 14.4444L14.4438 14.7892ZM14.9389 16.3451C13.3643 17.6122 11.3631 18.3705 9.18464 18.3705C4.11177 18.3705 -0.000610352 14.2581 -0.000610352 9.18525C-0.000610352 4.11238 4.11177 0 9.18464 0C14.2575 0 18.3699 4.11238 18.3699 9.18525C18.3699 11.3637 17.6116 13.365 16.3445 14.9395L19.7083 18.3034C20.0964 18.6915 20.0964 19.3208 19.7083 19.7089C19.3202 20.097 18.6909 20.097 18.3028 19.7089L14.9389 16.3451Z" fill="#042B46"/>
</g>
</svg>
